<?xml version="1.0" encoding="UTF-8"?>
<svg id="Layer_2" data-name="Layer 2" xmlns="http://www.w3.org/2000/svg" viewBox="0 0 550.33 332.56">
  <defs>
    <style>
      .cls-1 {
        fill: #fff;
      }
    </style>
  </defs>
  <g id="Layer_2-2" data-name="Layer 2">
    <g id="Layer_1-2" data-name="Layer 1-2">
      <g>
        <path class="cls-1" d="M550.32,217.64c-.04-.46-.33-.97-.9-1.42-2.73-2.05-5.7-3.81-8.44-5.87-2.73-2.06-5.09-4.62-7.83-6.68-2.73-2.06-5.53-4.04-8.27-6.11-2.74-2.06-5.47-4.13-8.21-6.19-2.73-2.06-5.45-4.15-8.19-6.21-2.73-2.06-5.62-3.93-8.35-5.99-2.74-2.07-5.28-4.39-8.01-6.45-2.74-2.07-5.66-3.89-8.39-5.95-2.74-2.06-5.72-3.8-8.45-5.86-2.74-2.07-5.02-4.75-7.74-6.8-2.75-2.08-5.85-3.65-8.58-5.71-2.74-2.07-5.53-4.07-8.25-6.13-2.74-2.08-5.12-4.61-7.84-6.68-2.74-2.07-5.85-3.65-8.57-5.71-2.74-2.09-5.01-4.77-7.72-6.84-2.75-2.08-5.59-4.01-8.3-6.08-2.74-2.09-5.71-3.85-8.41-5.92-2.75-2.09-5.66-3.93-8.36-6-2.74-2.1-4.92-4.89-7.62-6.96-2.74-2.1-5.58-4.04-8.27-6.11-2.74-2.11-5.6-4.02-8.28-6.09-2.74-2.12-5.56-4.07-8.24-6.15-2.74-2.12-5.43-4.24-8.1-6.32-2.74-2.13-5.09-4.7-7.75-6.78-2.73-2.14-5.39-4.3-8.05-6.39-2.73-2.15-5.9-3.67-8.54-5.76-2.73-2.16-5.07-4.73-7.7-6.83-2.73-2.17-5.35-4.38-7.96-6.49-2.73-2.19-5.49-4.23-8.08-6.35-2.73-2.21-5.18-4.62-7.75-6.74-2.73-2.25-5.54-4.22-8.08-6.35-2.72-2.29-5.18-4.68-7.68-6.82-2.73-2.33-5.59-4.25-8.04-6.4-2.72-2.41-5.15-5.01-7.51-7.18-.28,0-.55,0-.83,0-2.98,0-6.03.45-8.97.45-.18,0-.36,0-.55,0-1.39-.03-2.77-.03-4.15-.03h-3.85c-.74,0-1.47,0-2.21,0-2.14-.02-4.26-.02-6.37-.02-1.29,0-2.57,0-3.84,0h-.17c-3.18,0-6.33-.47-9.45-.47-.2,0-.4,0-.6,0-3.45.07-6.85.09-10.21.22-.92,0-1.35.27-1.38.68,0,.04,0,.08,0,.13v.03l-.02,11.94c-2.33-2-4.62-4.1-7.07-6.06-2.79-2.24-5.57-4.67-8.44-6.92-.47,0-.94-.02-1.41-.02-2.55,0-5.15.17-7.73.17-.37,0-.74,0-1.12,0-3.36-.07-6.75-.56-10.17-.61-.62,0-1.25,0-1.88,0-2.37,0-4.75.05-7.14.05h-1.16c-3.37-.03-6.76-.25-10.19-.26h-.15c-3.31,0-6.66.19-10.02.21-3.38,0-6.77.11-10.19.14-3.37.03-6.76.31-10.18.36-.85.02-1.7.02-2.56.02-1.47,0-2.94,0-4.43,0-1.06,0-2.13,0-3.2.03-3.37.06-6.77.11-10.19.2-1.03,0-1.62.35-1.56.9h-.01v22.63c-4.48-7.51-10.32-15.39-17.33-23.6-8.29-1.07-19.52-1.45-32.39-1.45C44.42,0,22.78.77,1.57,1.45.65,1.45.08,1.76.02,2.24c-.02.03-.02.06-.02.1v113.62c0,.13.03.26.1.41,23.84,62.83,57.27,135.63,95.62,213.55.51,1.13,2.77,2.26,4.55,2.26l134.49-.03c.67,0,.95-.33.66-.76l-.42-.64.32.05v-29.97c7.7,11.07,15.02,20.97,21.87,29.45.72,1.07,2.8,2.02,4.43,2.01l53.38-.14c.47,0,.74-.17.76-.42v-26.34c16.27-1.51,30.66-2.57,42.98-3.16,1.32-.1,3.16.53,4.21,1.45l31.77,27.78c.48.42,1.28.72,1.92.72l65.55-.03c.42,0,.77-.06,1.02-.18l1.61.59-.12-13.18c4.7,3.8,9.42,7.6,14.14,11.4.98.82,2.58,1.4,3.84,1.4l66.06-.03c1,0,1.55-.36,1.57-.88h.02v-113.63h-.01ZM120.68,4.38c1.2-.02,2.4-.04,3.59-.07,1.05-.02,2.1-.02,3.14-.02h2.21c.75.01,1.49.01,2.22.01.87,0,1.74,0,2.6-.02,1.7-.02,3.39-.1,5.03-.18,1.78-.08,3.45-.16,5.14-.18,1.5,0,3-.04,4.5-.07,1.86-.03,3.79-.07,5.67-.07,1.66,0,3.33-.06,4.94-.11,1.75-.05,3.41-.1,5.07-.1h.15c1.75,0,3.55.07,5.29.13,1.59.06,3.24.11,4.87.13h1.19c1.21,0,2.42,0,3.62-.02,1.18-.02,2.35-.03,3.52-.03.61,0,1.23,0,1.84,0,1.67.03,3.32.16,5.08.3,1.65.14,3.35.27,5.07.31.39.01.79.01,1.18.01,1.35,0,2.69-.04,3.99-.08,1.3-.05,2.52-.09,3.74-.09h.34c1.34,1.07,2.67,2.17,3.96,3.25,1.2,1,2.44,2.04,3.68,3.03,1.56,1.25,3.1,2.6,4.59,3.91,1.17,1.03,2.39,2.09,3.61,3.11.24.2.49.4.73.6.89.73,1.77,1.44,2.63,2.14,1.74,1.39,3.38,2.71,4.97,4.1.87.75,1.74,1.5,2.6,2.24,1.93,1.65,3.75,3.22,5.5,4.84,1.9,1.76,3.73,3.62,5.49,5.42-.31.07-.61.15-.91.22-1.14.27-2.32.56-4.62,1.21-2.27.65-3.42,1.01-4.52,1.35-1.13.35-2.19.69-4.39,1.31-1.31.38-2.28,1.44-2.53,2.77-.28,1.43.31,2.89,1.52,3.82,2.1,1.63,3.2,2.41,4.27,3.17,1.06.76,2.07,1.47,4.09,3.03,2.08,1.6,3.16,2.4,4.21,3.17,1.06.78,2.07,1.52,4.1,3.08,2.07,1.6,3.14,2.4,4.17,3.17,1.02.76,2.07,1.55,4.11,3.12,2.05,1.58,3.06,2.37,4.08,3.17,1.02.81,2.05,1.62,4.12,3.22,2.08,1.6,3.16,2.39,4.2,3.16,1.01.76,2.06,1.53,4.1,3.1,2.01,1.56,2.97,2.34,3.98,3.18.85.7,1.72,1.43,3.25,2.62.27.21.57.44.89.69,2.07,1.59,3.11,2.38,4.15,3.17.56.41,1.11.83,1.82,1.37-1.07.09-1.89.16-2.7.23-1.46.12-2.97.25-5.94.47-3.05.23-4.59.41-6.09.59-1.5.17-2.91.34-5.83.55-2.93.22-4.35.27-5.86.33-1.5.05-3.05.11-6.07.33-.03,0-.08,0-.13-.01-1.87-1.73-2.76-2.66-3.7-3.64-.99-1.04-2.02-2.11-4.17-4.08-2.14-1.97-3.28-2.9-4.38-3.81-1.09-.9-2.12-1.74-4.14-3.6-2.02-1.85-2.96-2.8-3.96-3.81s-2.04-2.05-4.16-4.01c-2.07-1.89-3.17-2.85-4.22-3.76-.02-.02-.04-.03-.06-.05-1.08-.93-2.1-1.82-4.14-3.69-2.03-1.87-2.98-2.81-3.98-3.82-1.01-1-2.04-2.03-4.16-3.98-1.9-1.75-4.71-1.93-5.83-1.93-.37,0-.73.02-1.08.05-1.4.16-2.64.24-3.89.24-.74,0-1.39-.03-2.01-.05-.6-.03-1.17-.05-1.77-.05-2.09,0-4.23.26-7.91,1.51l-3.92,1.33,2.49,3.31c1.55,2.06,3.21,4.13,4.97,6.31.56.71,1.14,1.43,1.72,2.16,1.32,1.64,2.68,3.24,4.13,4.93.93,1.09,1.88,2.2,2.82,3.33.97,1.17,1.9,2.4,2.88,3.7,1.19,1.57,2.42,3.2,3.78,4.79l.36.42c1.14,1.3,2.34,2.57,3.5,3.8,1.15,1.21,2.33,2.45,3.44,3.72,1.02,1.17,2.01,2.34,3.06,3.59.4.48.81.96,1.22,1.45-.27.01-.52.03-.77.04-1.14.07-2.28.14-4.56.27-2.36.13-3.55.25-4.71.37-1.14.11-2.22.22-4.44.35-2.33.13-3.51.23-4.66.33-1.15.1-2.24.19-4.48.32-.68.03-1.28.06-1.83.07-.28.01-.54.01-.79.01-.65,0-1.17-.02-1.7-.04-.59-.02-1.17-.04-1.9-.04-.89,0-1.83.03-2.96.1h-.13c-.85,0-1.77-.31-2.1-.51-.75-1.18-1.49-2.36-2.23-3.53-1.1-1.75-2.24-3.56-3.38-5.32-.91-1.4-1.78-2.89-2.63-4.33-.93-1.59-1.89-3.24-2.94-4.84-1.07-1.62-2.2-3.19-3.29-4.7-1.01-1.4-1.95-2.71-2.86-4.07-1.31-1.96-2.63-3.89-3.94-5.82-.7-1.02-1.39-2.03-2.08-3.05-2.24-3.31-4.13-6.08-6.03-8.85-1.18-1.72-2.39-3.43-3.57-5.08-.87-1.23-1.74-2.45-2.59-3.68-.96-1.37-1.88-2.84-2.77-4.26-.98-1.55-2-3.16-3.09-4.72-1.12-1.58-2.32-3.07-3.48-4.51-1.09-1.36-2.11-2.64-3.07-3.98s-1.83-2.76-2.76-4.25c-.96-1.56-1.96-3.18-3.09-4.73-1.12-1.56-2.33-3.04-3.5-4.47-.89-1.09-1.74-2.12-2.55-3.18-.2-.26-.39-.51-.58-.77-.97-1.34-1.95-2.72-2.89-4.06-.34-.48-.68-.97-1.03-1.46,1.09-.02,2.18-.04,3.27-.06h0ZM119.89,63.92c8.07,14.41,15.67,27.3,21.78,34.35,1.44,2.03,4.55,3.24,6.83,3.24.27,0,.53-.01.78-.04l11.98-1.15,7.21,11.99-12.8,3.77-3.1.91,1.14,3.03c3.83,10.16,9.37,20.53,16.45,30.83.87,1.26,2.47,1.85,3.67,1.88l13.26.31,1.29.03,8.96,13.6.06.09c-1.56.17-3.94.3-7.56.3-.86,0-1.78,0-2.75-.02-6.77-.11-16.07-.57-28.29-1.41h-.15c-.72-.02-1.63-.45-1.92-.71-13.31-23.32-26.14-46.04-36.81-66.52-2.64-5.03-5.13-9.93-7.47-14.67-2.05-4.14-3.97-8.15-5.76-12.03-2.15-4.63-4.09-9.06-5.82-13.27l11.58-.23,4.2-.09c1.09,1.96,2.17,3.9,3.24,5.81ZM201.89,215.54h-14.8l-68.7.02h-18.12c-.68,0-1.6-.42-1.92-.69-18.05-36.68-34.04-70.3-48.11-101.15C33.58,77.2,19.63,44.55,8.14,15.29c-1.44-3.69-2.85-7.33-4.22-10.92l4.92-.16c18.53-.6,37.69-1.21,53.89-1.21,13.38,0,23.5.42,30.86,1.28,8.19,9.67,14.5,18.67,18.86,26.89,1.35,2.54,2.51,5,3.49,7.38-1.17-.03-2.34-.05-3.49-.07-1.27,0-2.53-.02-3.76-.02-13.83,0-26.07,1.02-36.39,3.02l-3.82.74,1.69,3.51c8.66,17.92,17.53,35.72,26.7,53.61,13.41,26.17,27.46,52.49,42.41,79.48,1.22,2.3,4.43,3.65,6.84,3.75h.05c4.36.11,8.91.31,13.52.55,4.52.23,9.09.5,13.58.77,4.59.27,9.24.55,13.82.78,5.1.27,10.09.47,14.8.56,1.63.03,3.21.05,4.76.05.81,0,1.61,0,2.39-.02.75.06,1.59.49,1.84.73l11.26,17.09,8.21,12.46h-28.46,0ZM451.28,215.37l-10.93-.06h-.06l-10.92.15h-.09l-10.78.46-10.79-.55s-.08,0-.12,0l-10.66-.1-.9-.16-7.31-6.37-7.76-7.1c-.06-.05-.11-.1-.17-.14l-8.2-6.48-7.67-7.07c-.23-.22-.49-.39-.77-.52l-4.17-1.93c-.4-.19-.83-.28-1.26-.28-.13,0-.26,0-.39.03l-9.77,1.28-9.83.27s-.11,0-.16,0l-9.99.82-9.9.93-9.93.69c-.07,0-.15,0-.22.02l-2.91.42-6.99,1.02c-.67.09-1.29.42-1.76.92l-.73.78c-.98,1.05-1.08,2.65-.23,3.81l5.66,7.79,5.58,7.9c.03.05.07.1.11.14l2.98,3.73-5.89.19-10.56-.53s-.09,0-.14,0l-10.68-.02h-.08l-10.61.28-9.99-.21-3.1-1.4-4.61-5.28-1.74-2-5.94-8.49-6.09-8.44-5.76-8.67s-.06-.09-.09-.13l-6.19-8.31-5.48-8.78-5.57-8.86c-.04-.06-.08-.11-.11-.16l-6.04-8.35-4.95-9.03c-.04-.06-.07-.12-.11-.18l-5.66-8.8s-.02-.04-.04-.06l-5.79-8.58-3.43-6.21,7.42-.99,10.17-.11c.11,0,.22-.01.33-.02l10.13-1.24,1.46-.05,8.73-.29c.06,0,.11,0,.16-.01l10.26-.88,10.23-.71,10.28-.42h.14l10.24-.91,10.22-.59,6.64-.28,3.68-.16s.1-.01.14-.01l9.6-.89,2.79,1.05,8.12,5.39,8.34,5.7,8.2,5.91s.06.03.08.05l8.38,5.63,8.17,5.9c.06.04.11.08.16.11l8.51,5.36,8.13,5.9s.05.04.08.05l8.3,5.63,7.83,6.29c.09.08.19.15.29.21l8.48,5.28,7.79,6.24c.06.05.12.09.18.13l8.38,5.72,8.31,5.73,8.11,5.99,8.11,6.04,7.97,6.23c.07.05.15.1.22.15l8.47,5.47,8.07,5.85,3.76,3.14-5.37.05h0ZM537.72,215.21c-2.84,0-4.29.09-5.69.17-1.37.08-2.66.16-5.32.16-2.76,0-4.15.02-5.53.03-1.37,0-2.74.02-5.52.02-2.62,0-3.9-.09-5.25-.18-1.4-.1-2.84-.2-5.72-.2s-4.29.09-5.7.19c-1.36.08-2.65.17-5.3.17h-.1c-2.63,0-3.93-.05-5.3-.09-1.36-.05-2.77-.1-5.51-.1h-.1c-.55,0-1.34-.3-1.83-.7-1.37-1.1-2.77-2.2-4.12-3.26-1.34-1.05-2.73-2.14-4.07-3.22-1.43-1.15-2.91-2.21-4.34-3.23-1.42-1.02-2.77-1.97-4.05-3.01-1.27-1.02-2.47-2.15-3.74-3.34-1.28-1.21-2.62-2.46-4.06-3.62-1.32-1.07-2.65-2.21-3.94-3.32-1.31-1.12-2.67-2.29-4.05-3.4-1.44-1.16-2.94-2.21-4.39-3.22-1.42-.99-2.77-1.93-4.04-2.96-1.35-1.09-2.7-2.16-4.06-3.24-1.37-1.09-2.74-2.18-4.09-3.27-1.32-1.07-2.64-2.22-3.92-3.33-1.3-1.14-2.65-2.32-4.04-3.44-1.33-1.07-2.67-2.14-4-3.21-1.38-1.11-2.76-2.21-4.14-3.33-1.45-1.17-2.97-2.21-4.44-3.21-1.43-.97-2.78-1.89-4.03-2.91-1.23-.99-2.36-2.15-3.56-3.38-1.26-1.29-2.56-2.63-4.04-3.83-1.33-1.08-2.68-2.16-4.02-3.23-1.38-1.09-2.75-2.19-4.11-3.3-1.37-1.1-2.75-2.19-4.1-3.25-1.34-1.06-2.73-2.15-4.07-3.24-1.27-1.03-2.53-2.05-3.8-3.08-1.44-1.16-2.87-2.33-4.3-3.49-1.39-1.13-2.81-2.22-4.19-3.27-1.41-1.07-2.74-2.08-4.04-3.15-1.36-1.1-2.73-2.26-4.05-3.38-1.29-1.09-2.63-2.22-3.96-3.31-1.32-1.08-2.64-2.14-3.96-3.21-1.39-1.12-2.78-2.23-4.15-3.36-1.35-1.11-2.73-2.2-4.07-3.26-1.35-1.07-2.74-2.17-4.07-3.26-1.37-1.13-2.77-2.22-4.12-3.28-1.35-1.05-2.74-2.13-4.05-3.22-1.3-1.07-2.52-2.2-3.82-3.41-1.27-1.18-2.58-2.4-3.97-3.54-1.36-1.13-2.73-2.3-4.05-3.44-1.27-1.09-2.58-2.22-3.9-3.31-1.39-1.16-2.79-2.35-4.15-3.5-1.27-1.09-2.54-2.17-3.81-3.23-1.42-1.18-2.89-2.25-4.3-3.29-1.41-1.04-2.74-2.01-3.99-3.06-1.4-1.17-2.84-2.25-4.23-3.31-1.4-1.05-2.72-2.06-3.99-3.12-1.23-1.03-2.34-2.22-3.53-3.49-1.22-1.3-2.48-2.65-3.91-3.86-1.41-1.19-2.85-2.28-4.25-3.33-1.4-1.05-2.72-2.04-3.97-3.1-1.34-1.14-2.65-2.35-3.93-3.53-1.24-1.14-2.52-2.33-3.83-3.45-1.33-1.13-2.68-2.23-3.98-3.29-1.41-1.15-2.74-2.24-4.05-3.37-1.41-1.22-2.88-2.3-4.31-3.36-1.39-1.03-2.71-2.01-3.92-3.05-1.25-1.09-2.4-2.31-3.61-3.6-1.19-1.27-2.42-2.58-3.78-3.78-1.34-1.16-2.69-2.27-3.99-3.35-1.4-1.15-2.72-2.23-3.99-3.35-1.07-.96-2.14-1.9-3.2-2.83-1.22-1.07-2.39-2.09-3.54-3.11-.35-.32-.71-.64-1.06-.96-1.32-1.18-2.57-2.49-3.78-3.76-.18-.18-.35-.36-.53-.55.8,0,1.61-.02,2.43-.04,1.06-.01,2.13-.03,3.2-.05.18-.01.36-.01.54-.01,1.44,0,2.91.11,4.46.22,1.61.12,3.28.25,4.99.25h.18c1.27-.01,2.55-.01,3.83-.01,2.1,0,4.21,0,6.34.02.75.01,1.5.01,2.24.01h3.85c1.11,0,2.59,0,4.09.03.21,0,.41.01.61.01,1.58,0,3.15-.12,4.67-.23,1.37-.11,2.67-.2,3.93-.22.7.67,1.42,1.37,2.16,2.1,1.45,1.43,2.94,2.9,4.57,4.34,1.34,1.18,2.8,2.29,4.21,3.37,1.28.98,2.6,1.99,3.85,3.06,1.1.94,2.19,1.93,3.33,2.97,1.4,1.27,2.84,2.58,4.38,3.87,1.37,1.14,2.81,2.25,4.21,3.32,1.29.98,2.61,1.99,3.89,3.04,1.17.97,2.32,2,3.53,3.09,1.35,1.21,2.75,2.46,4.24,3.67,1.38,1.13,2.84,2.25,4.24,3.34,1.26.98,2.57,1.99,3.84,3.02,1.18.94,2.35,1.91,3.53,2.88,1.44,1.18,2.93,2.41,4.45,3.62,1.19.95,2.34,2.03,3.55,3.16,1.31,1.23,2.66,2.49,4.15,3.67,1.46,1.16,3.02,2.12,4.52,3.05,1.44.9,2.8,1.74,4.04,2.72,1.2.94,2.41,1.91,3.62,2.88,1.47,1.17,2.94,2.34,4.43,3.51,1.22.95,2.38,2.03,3.61,3.17,1.3,1.21,2.66,2.46,4.14,3.62,1.1.85,2.21,1.71,3.31,2.58,1.59,1.24,3.19,2.49,4.8,3.74,1.39,1.08,2.83,2.13,4.21,3.15,1.34.97,2.71,1.98,4.03,3,1.4,1.08,2.84,2.12,4.24,3.12,1.34.96,2.72,1.96,4.05,2.98,1.39,1.07,2.83,2.11,4.22,3.12,1.34.97,2.73,1.97,4.05,2.99,1.19.91,2.3,2.02,3.48,3.19,1.29,1.28,2.61,2.6,4.15,3.77,1.41,1.08,2.87,2.1,4.28,3.08,1.36.94,2.76,1.92,4.08,2.92,1.42,1.09,2.9,2.09,4.34,3.06,1.42.97,2.77,1.88,4.07,2.87,1.4,1.06,2.84,2.1,4.23,3.1,1.35.97,2.74,1.97,4.07,2.98,1.22.93,2.37,2.02,3.58,3.18,1.3,1.23,2.64,2.51,4.15,3.66,1.46,1.11,3.01,2.07,4.5,3,1.44.91,2.8,1.76,4.07,2.72,1.25.95,2.44,2.02,3.7,3.15,1.31,1.18,2.66,2.4,4.14,3.52,1.39,1.05,2.81,2.1,4.19,3.11,1.35,1,2.71,2,4.06,3.02,1.47,1.12,3.02,2.08,4.51,3,1.44.9,2.8,1.75,4.07,2.71,1.23.93,2.38,2.02,3.6,3.17,1.29,1.23,2.63,2.5,4.14,3.63,1.44,1.09,2.93,2.08,4.37,3.04,1.43.95,2.78,1.85,4.08,2.83,1.42,1.07,2.89,2.08,4.31,3.05,1.42.98,2.77,1.9,4.08,2.89s2.56,2.03,3.89,3.13c1.32,1.1,2.69,2.25,4.12,3.32,1.41,1.07,2.86,2.08,4.27,3.06,1.36.95,2.76,1.94,4.09,2.94,1.36,1.02,2.71,2.05,4.06,3.08,1.38,1.04,2.75,2.09,4.13,3.13,1.36,1.02,2.73,2.05,4.09,3.08.81.62,1.63,1.24,2.45,1.85.55.42,1.11.84,1.67,1.26,1.38,1.04,2.8,2.08,4.16,3.08,1.36.98,2.75,2,4.11,3.02,1.26.95,2.45,2.03,3.7,3.17,1.31,1.18,2.65,2.4,4.13,3.52,1.32.99,2.68,1.91,4.01,2.8-1.32-.18-2.8-.34-5.47-.34h0Z"/>
        <g>
          <path class="cls-1" d="M322.11,131.57c-2.28-.62-11.35-1.26-13.98-1.43-6.33-.41-13.22-.66-20.13-.74-11.03-.14-22.1.13-31.01.81-8.73.67-9.08,4.62-10.62,9.07-.05.15-.1.3-.16.46-2,5.44-2.75,11.47-4.14,17.19-.44,1.84-3.37,3.9,3.5,6.16,2.68.88,3.92.44,6.11.65,8.38.83,16.55,1.17,24.49,1.23h.06c3.98.03,7.91-.02,11.77-.11,5.21-.13,10.31-.35,15.3-.61,5.4-.28,9.16.39,11.36-2.37,1.82-2.27,2.32-5.14,3.45-7.66,2.14-4.78,4.92-9.46,5.99-14.57h-.01c.25-1.18,1.24-2.01,1.58-3.46s1.78-3.17-3.56-4.62h0ZM313.71,137.92c-3,7.22-6.07,14.45-10.92,20.94-4.02.7-8.89.48-13.63.39-.38,0-.77-.02-1.16-.03-6.35-.14-12.84-.46-19.21-.59-1.2-.02-2.39-.04-3.57-.05-1.26,0-12.28.48-13.03-.23.73-2.36,1.02-4.91,1.75-7.27.38-1.25.8-2.67,1.28-4.11.83-2.47,1.84-5,3.15-6.86,2.07-2.93,4.33-2.11,9.42-2.9,6.77-1.05,13.33-1.56,20.21-1.81,5.84-.2,11.91-.23,18.52-.24,2.62,0,5.48.33,8.11.33h0c.8.31-.78,2.11-.92,2.43h0Z"/>
          <path class="cls-1" d="M239.79,135.58c0,.9-1.58,6.75-2.86,6.4-2.07-1.68-13.68-5.56-14.85-6.67l.62-5.55.54-.24c.91.44,1.75.67,2.64.99h0c2.68.94,5.27,2.15,7.85,3.07,1.08.38,5.73,1.61,6.06,2h0Z"/>
          <path class="cls-1" d="M266.72,126.43c-.26.38-10.83.7-11.56.36l-8.52-8.36c-.26-.29-.61-.81-.44-1,.46-.49,10.64-.81,11.94-.19,3.73,2.98,5.91,6.13,8.58,9.19h0Z"/>
          <path class="cls-1" d="M304.79,126.29s-.23.06-.56.06c-2.39,0-11.6-.94-12-1.28.37-1.16-3.19-7.67-2.14-8.07.45-.17,9.2,1.42,10.6,1.47l1.11.5,2.99,7.32h0Z"/>
          <path class="cls-1" d="M344.59,158.2c-.03.19-.29.74-.58,1.27-.29.53-.61,1.04-.75,1.15-.22.15-.41.26-.91.2-.57-.06-8.95-3.81-10.47-4.18-.46-.22-.74-.46-.93-.73-.16-.23.38-2.92.58-3.19,1.28-1.76,2.31-.55,4.92.45,1.93.75,7.65,2.31,8.2,3.56.03.09-.02,1.29-.06,1.47h0Z"/>
          <path class="cls-1" d="M326.95,175.04c-1.67.83-4.09,2.29-7.42.02-1.89-1.3-5.85-4.21-7.5-5.55-.44-.35-.91-.7-1.19-1.08-.33-.56,1.54-.73,2.03-.98,1.03-.52,1.47-1.08,3.02-1.44h.01c.64-.15,1.99-.5,2.83-.18.38.15,5.07,3.21,5.79,3.7,4.86,3.38,5.93,3.77,2.43,5.51h0Z"/>
          <path class="cls-1" d="M294.87,179.45c-.29.24-.67.17-1.21.16-.02,0-.05,0-.09,0-.63-.04-3.22-.35-5.57-.67-2.08-.28-3.97-.56-4.2-.66-.56-.25-.83-.62-1.02-.93-.08-.92-4.38-6.86-4.21-7.1.19-.27,1.91-.15,3.98.08,1.81.2,3.88.48,5.45.66.97.11,1.75.18,2.15.16,1.55.99,1.22,1.81,1.71,2.61.67,1.13,3.68,5.15,3.01,5.7h0Z"/>
          <path class="cls-1" d="M304.44,139.6c-5.7-1.31-10.59-.54-15.12-.22-.44.03-.88.06-1.32.1-3.97.29-7.85.63-11.55,1.18h0c-3.07.45-7.78,1-9.5,2.3-1.1.84-1.22,2.26-2.02,3.24-.97,1.18-3.43,3.33-4.51,5.26-.44.78-.66,1.51-.47,2.14.23.75.39.81,1.61.99.66.1,1.67.19,2.81.27,2.41.17,5.39.3,6.87.36,6.07.26,11.55.09,16.76-.47,1.55-.16,3.07-.35,4.58-.58,4.47-.68,5.52-.93,7.36-3.2,1.64-2.02,2.86-5.04,3.7-7.43.18-.49,1.13-3.71.8-3.94h0ZM291.11,147.05c-.72.63-.91,1.49-1.81,2.04l-1.3.02-10.94.13c-.73-.51-.32-.37-.17-.55.17-.22,3.05-2.28,3.33-2.35l7.78-.59,5.31-.4c-.08.81-1.53,1.11-2.2,1.7h0Z"/>
        </g>
      </g>
    </g>
  </g>
</svg>